# xmcd
#
# Track frame offsets: 
#        150
#        36457
#        69152
#        88687
#        126911
#        148248
#        168686
#        185078
#        198472
#        212740
#
# Disc length: 2964 seconds
#
# Revision: 8
# Processed by: cddbd v1.5.2PL0 Copyright (c) Steve Scherf et al.
# Submitted via: ExactAudioCopy v0.99pb4
#
DISCID=9f0b920a
DTITLE=Ben Webster - Soulville
DYEAR=1958
DGENRE=Mainstream Jazz
TTITLE0=Soulville
TTITLE1=Late Date
TTITLE2=Time on My Hands
TTITLE3=Lover, Come Back to Me
TTITLE4=Where Are You?
TTITLE5=Makin' Whoopee
TTITLE6=Ill Wind
TTITLE7=Who
TTITLE8=Boogie Woogie
TTITLE9=Roses of Picardy
EXTD=Ben Webster [1909/1973]: tenor sax (tracks 1-7), piano (8-10]\nOs
EXTD=car Peterson [1925/2007]: piano (1-7]\nHerb Ellis [b.1921]: guita
EXTD=r\nRay Brown [1926/2002]: bass\nStan Levey [1926/2005]: drums\nRe
EXTD=corded at Capitol Studios, Hollywood US-CA, 1957-10-15.\nProduced
EXTD=by Norman Granz [1918/2001].\nTracks 1-7 originally issued as Ve
EXTD=rve MG V-8274 (1958).\nTracks 8-10 issued on an earlier CD reissu
EXTD=e, Verve 833551 (1991).\nReissue produced by Bryan Koniarz.\nMast
EXTD=ered by Suha Gur at Universal Mastering Studios-East, New York US
EXTD=NY.\nExecutive producer: Ken Druker\nCD: UMG/Verve 521449 (2003-
EXTD=02-25), UPC 731452144928.
EXTT0=(Ben Webster)
EXTT1=(Ben Webster)
EXTT2=(Vincent Youmans//Harold Adamson/Mack Gordon)
EXTT3=(Sigmnud Romberg//Oscar Hammerstein II)
EXTT4=(Jimmy McHugh//Harold Adamson)
EXTT5=(Walter Donaldson//Gus Kahn)
EXTT6=(Harold Arlen//Ted Koehler)
EXTT7=(Jerome Kern//Oscar Hammerstein II/Otto Harbach)
EXTT8=(Ben Webster)
EXTT9=(Haydn Wood//Frederic Weatherly)
PLAYORDER=
